 <svg xmlns="http://www.w3.org/2000/svg" x="0px" y="0px" width="50" height="50" viewBox="0 0 172 172"
                style=" fill:#000000;">
                <g fill="none" fill-rule="nonzero" stroke="none" stroke-width="1" stroke-linecap="butt"
                  stroke-linejoin="miter" stroke-miterlimit="10" stroke-dasharray="" stroke-dashoffset="0"
                  font-family="none" font-weight="none" font-size="none" text-anchor="none"
                  style="mix-blend-mode: normal">
                  <path d="M0,172v-172h172v172z" fill="none"></path>
                  <g fill="#5a81a8">
                    <path
                      d="M33.08984,15.45313c-4.6309,0 -8.39844,3.76754 -8.39844,8.39844c0,4.6309 3.76754,8.39844 8.39844,8.39844c4.6309,0 8.39844,-3.76754 8.39844,-8.39844c0,-4.6309 -3.76754,-8.39844 -8.39844,-8.39844zM33.08984,18.8125c2.77854,0 5.03906,2.26052 5.03906,5.03906c0,2.77854 -2.26052,5.03906 -5.03906,5.03906c-2.77854,0 -5.03906,-2.26052 -5.03906,-5.03906c0,-2.77854 2.26052,-5.03906 5.03906,-5.03906zM86.83984,20.49219c-6.48326,0 -11.75781,5.27455 -11.75781,11.75781c0,3.61234 1.63877,6.84827 4.21037,9.00667c-21.81914,3.53473 -38.65281,22.13272 -39.451,44.74333h-0.87265c-5.09382,0 -9.23828,4.14446 -9.23828,9.23828c0,2.23163 0.79541,4.28052 2.11732,5.87891h-18.9142c-0.92786,0 -1.67969,0.75183 -1.67969,1.67969v4.03125c0,8.57884 6.73535,15.61272 15.19527,16.09613c0.65474,5.6807 5.49042,10.107 11.3438,10.107h8.25934c-6.09189,5.3703 -6.07812,14.79771 0,20.15625h-12.96246c-0.92786,0 -1.67969,0.75183 -1.67969,1.67969c0,0.92786 0.75183,1.67969 1.67969,1.67969h109.17969c0.92786,0 1.67969,-0.75183 1.67969,-1.67969c0,-0.92786 -0.75183,-1.67969 -1.67969,-1.67969h-12.96246c6.09189,-5.3703 6.07812,-14.79771 0,-20.15625h6.57965c5.85338,0 10.68905,-4.42629 11.3438,-10.107c8.45991,-0.48341 15.19527,-7.51729 15.19527,-16.09613v-4.03125c0,-0.92786 -0.75183,-1.67969 -1.67969,-1.67969h-18.9142c1.32191,-1.59839 2.11732,-3.64727 2.11732,-5.87891c0,-5.09382 -4.14446,-9.23828 -9.23828,-9.23828h-0.87331c-0.79819,-22.61061 -17.63153,-41.2086 -39.45101,-44.74333c2.57194,-2.1584 4.21103,-5.39433 4.21103,-9.00667c0,-6.48326 -5.27455,-11.75781 -11.75781,-11.75781zM121.27344,22.17188c-1.3915,0 -2.51953,1.12803 -2.51953,2.51953c0,1.3915 1.12803,2.51953 2.51953,2.51953c1.3915,0 2.51953,-1.12803 2.51953,-2.51953c0,-1.3915 -1.12803,-2.51953 -2.51953,-2.51953zM86.83984,23.85156c4.6309,0 8.39844,3.76754 8.39844,8.39844c0,4.6309 -3.76754,8.39844 -8.39844,8.39844c-4.6309,0 -8.39844,-3.76754 -8.39844,-8.39844c0,-4.6309 3.76754,-8.39844 8.39844,-8.39844zM145.62891,27.21094c-5.55708,0 -10.07812,4.52105 -10.07812,10.07813c0,5.55708 4.52105,10.07813 10.07813,10.07813c5.55708,0 10.07813,-4.52105 10.07813,-10.07812c0,-5.55708 -4.52105,-10.07812 -10.07812,-10.07812zM145.62891,30.57031c3.70472,0 6.71875,3.01403 6.71875,6.71875c0,3.70472 -3.01403,6.71875 -6.71875,6.71875c-3.70472,0 -6.71875,-3.01403 -6.71875,-6.71875c0,-3.70472 3.01403,-6.71875 6.71875,-6.71875zM19.65234,44.00781c-0.92786,0 -1.67969,0.75216 -1.67969,1.67969c0,0.92752 0.75183,1.67969 1.67969,1.67969h26.875c0.92786,0 1.67969,-0.75216 1.67969,-1.67969c0,-0.92752 -0.75183,-1.67969 -1.67969,-1.67969zM86.83984,44.00781c23.51831,0 42.75024,18.6872 43.63644,41.99219h-6.05278c-0.5375,-12.1821 -6.89732,-23.29195 -17.25091,-29.96602c-0.78005,-0.50256 -1.81947,-0.27744 -2.32204,0.50194c-0.50256,0.77971 -0.27777,1.81848 0.50194,2.32138c9.38912,6.05293 15.17255,16.10815 15.7077,27.14336h-77.85679c0.8862,-23.30533 20.11813,-41.99284 43.63644,-41.99284zM11.25391,52.40625c-0.92786,0 -1.67969,0.75216 -1.67969,1.67969c0,0.92752 0.75183,1.67969 1.67969,1.67969h18.47656c0.92786,0 1.67969,-0.75216 1.67969,-1.67969c0,-0.92752 -0.75183,-1.67969 -1.67969,-1.67969zM19.65234,60.80469c-0.92786,0 -1.67969,0.75216 -1.67969,1.67969c0,0.92752 0.75183,1.67969 1.67969,1.67969h16.79688c0.92786,0 1.67969,-0.75216 1.67969,-1.67969c0,-0.92752 -0.75183,-1.67969 -1.67969,-1.67969zM151.50781,70.88281c-1.3915,0 -2.51953,1.12803 -2.51953,2.51953c0,1.3915 1.12803,2.51953 2.51953,2.51953c1.3915,0 2.51953,-1.12803 2.51953,-2.51953c0,-1.3915 -1.12803,-2.51953 -2.51953,-2.51953zM22.17188,79.28125c-1.3915,0 -2.51953,1.12803 -2.51953,2.51953c0,1.3915 1.12803,2.51953 2.51953,2.51953c1.3915,0 2.51953,-1.12803 2.51953,-2.51953c0,-1.3915 -1.12803,-2.51953 -2.51953,-2.51953zM38.96875,89.35938h95.74219c3.24146,0 5.87891,2.63745 5.87891,5.87891c0,3.24146 -2.63745,5.87891 -5.87891,5.87891h-95.74219c-3.24146,0 -5.87891,-2.63745 -5.87891,-5.87891c0,-3.24146 2.63745,-5.87891 5.87891,-5.87891zM14.61328,104.47656h144.45313v2.35156c0,7.0389 -5.72673,12.76563 -12.76562,12.76563h-118.92187c-7.0389,0 -12.76562,-5.72673 -12.76562,-12.76562zM29.84201,122.95313h113.99567c-0.64164,3.80819 -3.96304,6.71875 -7.95096,6.71875h-98.09375c-3.98791,0 -7.30932,-2.91056 -7.95096,-6.71875zM54.92578,133.03125c5.55708,0 10.07813,4.52105 10.07813,10.07813c0,5.55708 -4.52105,10.07813 -10.07812,10.07813c-5.55708,0 -10.07812,-4.52105 -10.07812,-10.07812c0,-5.55708 4.52105,-10.07812 10.07813,-10.07812zM63.79925,133.03125h47.76087c-6.09189,5.3703 -6.07812,14.79771 0,20.15625h-47.76087c6.09189,-5.3703 6.07812,-14.79771 0,-20.15625zM120.43359,133.03125c5.55708,0 10.07813,4.52105 10.07813,10.07813c0,5.55708 -4.52105,10.07813 -10.07812,10.07813c-5.55708,0 -10.07812,-4.52105 -10.07812,-10.07812c0,-5.55708 4.52105,-10.07812 10.07813,-10.07812zM54.92578,136.39063c-3.70472,0 -6.71875,3.01403 -6.71875,6.71875c0,3.70472 3.01403,6.71875 6.71875,6.71875c3.70472,0 6.71875,-3.01403 6.71875,-6.71875c0,-3.70472 -3.01403,-6.71875 -6.71875,-6.71875zM120.43359,136.39063c-3.70472,0 -6.71875,3.01403 -6.71875,6.71875c0,3.70472 3.01403,6.71875 6.71875,6.71875c3.70472,0 6.71875,-3.01403 6.71875,-6.71875c0,-3.70472 -3.01403,-6.71875 -6.71875,-6.71875zM22.17188,138.07031c-1.3915,0 -2.51953,1.12803 -2.51953,2.51953c0,1.3915 1.12803,2.51953 2.51953,2.51953c1.3915,0 2.51953,-1.12803 2.51953,-2.51953c0,-1.3915 -1.12803,-2.51953 -2.51953,-2.51953zM54.92578,139.75c1.85236,0 3.35938,1.50702 3.35938,3.35938c0,1.85236 -1.50702,3.35938 -3.35937,3.35938c-1.85236,0 -3.35937,-1.50702 -3.35937,-3.35937c0,-1.85236 1.50702,-3.35937 3.35938,-3.35937zM120.43359,139.75c1.85236,0 3.35938,1.50702 3.35938,3.35938c0,1.85236 -1.50702,3.35938 -3.35937,3.35938c-1.85236,0 -3.35937,-1.50702 -3.35937,-3.35937c0,-1.85236 1.50702,-3.35937 3.35938,-3.35937zM149.82813,143.10872c-1.39186,0 -2.52019,1.12833 -2.52019,2.52019c0,1.39186 1.12833,2.52019 2.52019,2.52019c1.39186,0 2.52019,-1.12833 2.52019,-2.52019c0,-1.39186 -1.12833,-2.52019 -2.52019,-2.52019z">
                    </path>
                  </g>
                </g>
              </svg>